<svg width="40" height="40" viewBox="0 0 40 40" fill="none" xmlns="http://www.w3.org/2000/svg">
<path d="M19.1814 14.3545C19.5565 14.8915 19.7441 15.5407 19.7441 16.2941C19.7441 17.0635 19.5565 17.6887 19.1736 18.1615C18.9627 18.426 18.6423 18.6665 18.2281 18.8829C18.8611 19.1233 19.3377 19.492 19.6581 20.0049C19.9785 20.5179 20.1426 21.135 20.1426 21.8644C20.1426 22.6178 19.9628 23.291 19.5878 23.8841C19.3534 24.2768 19.0642 24.6134 18.7126 24.8779C18.3219 25.1905 17.8531 25.3989 17.3139 25.5191C16.7747 25.6313 16.1965 25.6874 15.5636 25.6874H10V13H15.9777C17.478 13.024 18.5485 13.4729 19.1814 14.3545ZM12.4614 15.2041V18.0012H15.4698C16.009 18.0012 16.4387 17.897 16.7747 17.6887C17.1107 17.4803 17.2748 17.1036 17.2748 16.5746C17.2748 15.9815 17.056 15.5968 16.6106 15.4044C16.2278 15.2762 15.7433 15.2041 15.1494 15.2041H12.4614ZM12.4614 20.0931V23.4753H15.4698C16.009 23.4753 16.4231 23.4032 16.72 23.2509C17.267 22.9704 17.5327 22.4494 17.5327 21.672C17.5327 21.0148 17.2748 20.558 16.7435 20.3095C16.4465 20.1732 16.0402 20.1011 15.5089 20.0931H12.4614ZM27.6127 16.4945C28.2535 16.783 28.777 17.2478 29.1912 17.881C29.5662 18.434 29.8085 19.0832 29.9179 19.8206C29.9804 20.2534 30.0116 20.8705 29.996 21.68H23.3385C23.3776 22.6178 23.6901 23.283 24.2918 23.6597C24.6591 23.8921 25.0966 24.0123 25.6124 24.0123C26.1515 24.0123 26.5969 23.8681 26.9407 23.5795C27.1283 23.4272 27.2924 23.2109 27.433 22.9303H29.871C29.8085 23.4834 29.5116 24.0524 28.988 24.6295C28.1675 25.5432 27.0267 26 25.5499 26C24.3309 26 23.2604 25.6153 22.3305 24.8459C21.4006 24.0764 20.9318 22.8261 20.9318 21.0949C20.9318 19.4679 21.3537 18.2256 22.1898 17.36C23.0337 16.4945 24.1199 16.0617 25.4561 16.0617C26.2609 16.0536 26.9798 16.1979 27.6127 16.4945ZM24.0418 18.6104C23.7058 18.971 23.4948 19.4519 23.401 20.061H27.519C27.4721 19.4118 27.2611 18.9149 26.886 18.5783C26.5032 18.2417 26.0265 18.0734 25.4639 18.0734C24.8544 18.0734 24.3778 18.2577 24.0418 18.6104ZM28.0816 13.5931H22.7837V15.172H28.0816V13.5931Z" fill="black"/>
</svg>
