<svg width="40" height="40" viewBox="0 0 40 40" fill="none" xmlns="http://www.w3.org/2000/svg">
<path d="M20.1816 10C21.8673 10 23.2324 9.99749 24.3047 10.1416C25.4058 10.2896 26.3474 10.6091 27.0967 11.3584C27.8457 12.1076 28.1645 13.0485 28.3125 14.1494C28.4567 15.2217 28.4541 16.5867 28.4541 18.2725C28.4541 18.8247 28.0063 19.2724 27.4541 19.2725C26.902 19.2722 26.4541 18.8246 26.4541 18.2725C26.4541 16.5303 26.4521 15.3241 26.3301 14.416C26.2119 13.537 25.9982 13.0882 25.6826 12.7725C25.3669 12.4568 24.918 12.2423 24.0391 12.124C23.131 12.0019 21.924 12 20.1816 12H19.2725C17.5303 12 16.324 12.002 15.416 12.124C14.5367 12.2422 14.0882 12.4567 13.7725 12.7725C13.4567 13.0882 13.2422 13.5367 13.124 14.416C13.002 15.3241 13 16.5303 13 18.2725V21.9092C13 23.6514 13.002 24.8576 13.124 25.7656C13.2422 26.6448 13.4567 27.0934 13.7725 27.4092C14.1109 27.7475 14.5329 27.9489 15.2461 28.0605C16.0021 28.1788 16.9704 28.1816 18.3633 28.1816C18.9155 28.1817 19.3632 28.6295 19.3633 29.1816C19.3632 29.7339 18.9155 30.1816 18.3633 30.1816C17.0297 30.1816 15.8814 30.184 14.9365 30.0361C13.9486 29.8815 13.0841 29.5508 12.3574 28.8242C11.6082 28.0749 11.2896 27.1333 11.1416 26.0322C10.9975 24.9599 11 23.5949 11 21.9092V18.2725C11 16.5867 10.9984 15.2217 11.1426 14.1494C11.2906 13.0483 11.6091 12.1077 12.3584 11.3584C13.1077 10.6091 14.0483 10.2896 15.1494 10.1416C16.2217 9.99745 17.5867 10 19.2725 10H20.1816ZM26.5254 21.1074C26.9929 20.8758 27.5323 20.847 28.0176 21.0205L28.2217 21.1074L28.3389 21.1719C28.6042 21.3334 28.824 21.5682 28.9912 21.7354C29.1584 21.9025 29.3931 22.1224 29.5547 22.3877L29.6191 22.5049L29.7061 22.709C29.8799 23.1945 29.8509 23.7335 29.6191 24.2012C29.4615 24.5188 29.1823 24.7796 28.9912 24.9707L24.4365 29.5254C24.2505 29.7074 24.0148 29.9138 23.7197 30.0361C23.4244 30.1583 23.1118 30.179 22.8516 30.1816H21.5449C20.9929 30.1814 20.545 29.7337 20.5449 29.1816V27.875C20.5476 27.6148 20.5681 27.3022 20.6904 27.0068C20.8535 26.6134 21.166 26.3261 21.3711 26.1211L25.7559 21.7354L25.9121 21.5791C26.0808 21.4127 26.2872 21.2267 26.5254 21.1084V21.1074ZM27.1709 23.1494L22.7852 27.5352C22.7182 27.6021 22.6661 27.6539 22.6221 27.6992C22.5905 27.7318 22.5671 27.7572 22.5498 27.7764C22.5484 27.8024 22.5466 27.8372 22.5459 27.8838C22.545 27.947 22.5449 28.0203 22.5449 28.1152V28.1816H22.6113C22.7063 28.1816 22.7804 28.1816 22.8438 28.1807C22.8892 28.18 22.9234 28.1772 22.9492 28.1758C22.9685 28.1585 22.9946 28.1362 23.0273 28.1045C23.0728 28.0604 23.1252 28.0086 23.1924 27.9414L27.5771 23.5557C27.6697 23.4631 27.7305 23.3996 27.7754 23.3525C27.7305 23.3055 27.6697 23.242 27.5771 23.1494C27.4845 23.0568 27.4211 22.9961 27.374 22.9512C27.327 22.9961 27.2634 23.0569 27.1709 23.1494ZM23.3633 19.0908C23.9154 19.0908 24.363 19.5387 24.3633 20.0908C24.363 20.6429 23.9154 21.0908 23.3633 21.0908H16.0908C15.5387 21.0908 15.0911 20.6429 15.0908 20.0908C15.0911 19.5387 15.5387 19.0908 16.0908 19.0908H23.3633ZM23.4658 14.5498C23.9699 14.601 24.3631 15.0274 24.3633 15.5449C24.3633 16.0627 23.97 16.4888 23.4658 16.54L23.3633 16.5449H16.0908C15.5385 16.5449 15.0908 16.0972 15.0908 15.5449C15.0911 14.9928 15.5387 14.5449 16.0908 14.5449H23.3633L23.4658 14.5498Z" fill="black"/>
</svg>
