<svg width="840" height="473" viewBox="0 0 840 473" fill="none" xmlns="http://www.w3.org/2000/svg">
<g clip-path="url(#clip0_141_64)">
<g filter="url(#filter0_fn_141_64)">
<ellipse cx="29.5" cy="449.853" rx="79.5" ry="69.7125" fill="#043EFC"/>
</g>
<g filter="url(#filter1_fn_141_64)">
<ellipse cx="29.5" cy="567.828" rx="79.5" ry="154.172" fill="#043EFC"/>
</g>
<g filter="url(#filter2_fn_141_64)">
<ellipse cx="644.5" cy="538.334" rx="230.5" ry="183.666" fill="#043EFC"/>
</g>
<g filter="url(#filter3_fn_141_64)">
<ellipse cx="817.5" cy="526.269" rx="120.5" ry="171.6" fill="#043EFC"/>
</g>
<g filter="url(#filter4_fn_141_64)">
<ellipse cx="132.5" cy="471.303" rx="75.5" ry="116.634" fill="#043EFC"/>
</g>
<g filter="url(#filter5_fn_141_64)">
<ellipse cx="255" cy="480.017" rx="188" ry="99.8766" fill="#043EFC"/>
</g>
<g filter="url(#filter6_fn_141_64)">
<ellipse cx="478.5" cy="453" rx="209.5" ry="156" fill="#043EFC"/>
</g>
<g style="mix-blend-mode:soft-light" opacity="0.5">
<path d="M752.12 471.559V338.773H774.941V471.559H752.12ZM813.59 471.559L780.923 427.205L795.554 410.273L840 471.559H813.59ZM771.629 441.192V414.506H775.493L811.934 374.017H838.344L792.885 423.432H788.652L771.629 441.192Z" fill="white"/>
<path d="M698.192 473.491C688.561 473.491 680.217 471.436 673.162 467.326C666.107 463.216 660.648 457.357 656.783 449.75C652.979 442.143 651.077 433.125 651.077 422.696V422.604C651.077 412.236 653.01 403.28 656.875 395.734C660.74 388.127 666.169 382.268 673.162 378.158C680.217 374.048 688.469 371.992 697.916 371.992C706.505 371.992 713.928 373.649 720.185 376.962C726.443 380.213 731.35 384.538 734.908 389.937C738.467 395.335 740.491 401.286 740.982 407.789V408.433H719.449L719.265 407.697C718.345 402.973 716.106 398.955 712.547 395.642C709.051 392.268 704.265 390.581 698.192 390.581C693.407 390.581 689.205 391.9 685.585 394.538C682.027 397.114 679.266 400.795 677.303 405.58C675.34 410.365 674.359 416.101 674.359 422.788V422.88C674.359 429.628 675.34 435.395 677.303 440.18C679.328 444.965 682.119 448.646 685.677 451.222C689.297 453.738 693.499 454.995 698.284 454.995C704.112 454.995 708.805 453.431 712.363 450.302C715.983 447.112 718.314 442.971 719.357 437.879L719.541 437.051H741.166L741.074 437.695C740.46 444.444 738.313 450.517 734.632 455.915C730.952 461.314 726.013 465.608 719.817 468.798C713.621 471.927 706.413 473.491 698.192 473.491Z" fill="white"/>
<path d="M587.579 473.215C581.138 473.215 575.433 471.988 570.463 469.535C565.556 467.019 561.721 463.553 558.961 459.136C556.262 454.658 554.912 449.535 554.912 443.769V443.585C554.912 437.757 556.354 432.788 559.237 428.677C562.182 424.506 566.415 421.224 571.936 418.831C577.457 416.377 584.144 414.905 591.996 414.414L629.265 412.114V427.297L595.217 429.413C589.573 429.782 585.248 431.131 582.242 433.462C579.236 435.794 577.733 438.892 577.733 442.757V442.849C577.733 446.836 579.236 449.995 582.242 452.327C585.309 454.597 589.358 455.731 594.389 455.731C598.806 455.731 602.732 454.842 606.168 453.063C609.664 451.284 612.425 448.861 614.449 445.793C616.474 442.726 617.486 439.26 617.486 435.395V406.132C617.486 401.224 615.922 397.36 612.793 394.538C609.726 391.654 605.278 390.213 599.45 390.213C594.051 390.213 589.726 391.378 586.475 393.709C583.224 395.979 581.199 398.924 580.402 402.543L580.218 403.372H559.053L559.145 402.267C559.636 396.501 561.568 391.347 564.942 386.808C568.316 382.207 572.979 378.587 578.929 375.949C584.941 373.311 592.058 371.992 600.278 371.992C608.437 371.992 615.492 373.342 621.443 376.041C627.455 378.741 632.087 382.513 635.338 387.36C638.651 392.206 640.307 397.912 640.307 404.476V471.559H617.486V456.56H616.934C615.094 459.934 612.701 462.878 609.756 465.394C606.812 467.909 603.438 469.841 599.634 471.191C595.892 472.541 591.874 473.215 587.579 473.215Z" fill="white"/>
<path d="M499.972 471.559V374.017H522.793V390.857H523.345C524.817 384.967 527.486 380.366 531.351 377.054C535.277 373.679 540.062 371.992 545.706 371.992C547.117 371.992 548.467 372.084 549.755 372.268C551.043 372.453 552.117 372.667 552.976 372.913V393.617C552.056 393.249 550.737 392.943 549.019 392.697C547.362 392.452 545.553 392.329 543.59 392.329C539.295 392.329 535.584 393.219 532.455 394.998C529.326 396.715 526.934 399.261 525.277 402.635C523.621 406.009 522.793 410.12 522.793 414.966V471.559H499.972Z" fill="white"/>
<path d="M447.056 473.491C437.425 473.491 429.081 471.436 422.026 467.326C414.971 463.216 409.512 457.357 405.647 449.75C401.843 442.143 399.941 433.125 399.941 422.696V422.604C399.941 412.236 401.874 403.28 405.739 395.734C409.604 388.127 415.033 382.268 422.026 378.158C429.081 374.048 437.333 371.992 446.78 371.992C455.369 371.992 462.792 373.649 469.049 376.962C475.307 380.213 480.214 384.538 483.772 389.937C487.331 395.335 489.355 401.286 489.846 407.789V408.433H468.313L468.129 407.697C467.209 402.973 464.97 398.955 461.411 395.642C457.915 392.268 453.13 390.581 447.056 390.581C442.271 390.581 438.069 391.9 434.449 394.538C430.891 397.114 428.13 400.795 426.167 405.58C424.204 410.365 423.223 416.101 423.223 422.788V422.88C423.223 429.628 424.204 435.395 426.167 440.18C428.192 444.965 430.983 448.646 434.541 451.222C438.161 453.738 442.363 454.995 447.148 454.995C452.976 454.995 457.669 453.431 461.227 450.302C464.847 447.112 467.178 442.971 468.221 437.879L468.405 437.051H490.03L489.938 437.695C489.324 444.444 487.177 450.517 483.496 455.915C479.816 461.314 474.877 465.608 468.681 468.798C462.485 471.927 455.277 473.491 447.056 473.491Z" fill="white"/>
<path d="M301.291 471.559V338.773H324.204V390.397H324.664C327.241 384.507 331.075 379.968 336.167 376.778C341.32 373.588 347.516 371.992 354.755 371.992C361.81 371.992 367.914 373.618 373.067 376.87C378.221 380.06 382.208 384.569 385.03 390.397C387.852 396.163 389.263 402.973 389.263 410.825V471.559H366.35V415.334C366.35 407.85 364.54 401.991 360.921 397.758C357.301 393.464 352.209 391.317 345.645 391.317C341.351 391.317 337.578 392.36 334.327 394.446C331.137 396.47 328.652 399.292 326.873 402.912C325.094 406.47 324.204 410.611 324.204 415.334V471.559H301.291Z" fill="white"/>
<path d="M247.731 473.491C238.1 473.491 229.757 471.436 222.702 467.326C215.647 463.216 210.187 457.357 206.322 449.75C202.518 442.143 200.617 433.125 200.617 422.696V422.604C200.617 412.236 202.549 403.28 206.414 395.734C210.279 388.127 215.708 382.268 222.702 378.158C229.757 374.048 238.008 371.992 247.455 371.992C256.044 371.992 263.467 373.649 269.724 376.962C275.982 380.213 280.89 384.538 284.448 389.937C288.006 395.335 290.03 401.286 290.521 407.789V408.433H268.988L268.804 407.697C267.884 402.973 265.645 398.955 262.087 395.642C258.59 392.268 253.805 390.581 247.731 390.581C242.946 390.581 238.744 391.9 235.125 394.538C231.566 397.114 228.806 400.795 226.843 405.58C224.88 410.365 223.898 416.101 223.898 422.788V422.88C223.898 429.628 224.88 435.395 226.843 440.18C228.867 444.965 231.658 448.646 235.217 451.222C238.836 453.738 243.038 454.995 247.823 454.995C253.651 454.995 258.344 453.431 261.903 450.302C265.522 447.112 267.853 442.971 268.896 437.879L269.08 437.051H290.705L290.613 437.695C290 444.444 287.853 450.517 284.172 455.915C280.491 461.314 275.552 465.608 269.356 468.798C263.16 471.927 255.952 473.491 247.731 473.491Z" fill="white"/>
<path d="M183.129 473.492C173.007 473.492 165.461 471.283 160.492 466.866C155.584 462.449 153.13 455.21 153.13 445.149V391.685H139.327V374.017H153.13V349.263H176.411V374.017H194.54V391.685H176.411V443.309C176.411 448.033 177.454 451.315 179.54 453.155C181.687 454.934 184.816 455.824 188.926 455.824C190.092 455.824 191.104 455.793 191.963 455.732C192.883 455.609 193.742 455.517 194.54 455.456V472.663C193.19 472.847 191.533 473.032 189.57 473.216C187.669 473.4 185.521 473.492 183.129 473.492Z" fill="white"/>
<path d="M108.312 471.559V374.017H131.226V471.559H108.312ZM119.723 360.03C116.165 360.03 113.159 358.803 110.705 356.349C108.251 353.895 107.024 350.95 107.024 347.515C107.024 344.018 108.251 341.073 110.705 338.681C113.159 336.227 116.165 335 119.723 335C123.342 335 126.379 336.227 128.833 338.681C131.287 341.073 132.514 344.018 132.514 347.515C132.514 350.95 131.287 353.895 128.833 356.349C126.379 358.803 123.342 360.03 119.723 360.03Z" fill="white"/>
<path d="M11.8707 427.665V408.525H45.2743C53.8629 408.525 60.4884 406.347 65.1508 401.991C69.8745 397.574 72.2364 391.378 72.2364 383.403V383.219C72.2364 375.183 69.8745 368.986 65.1508 364.631C60.4884 360.275 53.8629 358.097 45.2743 358.097H11.8707V338.773H51.1636C60.1203 338.773 67.9728 340.613 74.721 344.294C81.5305 347.975 86.8371 353.159 90.6406 359.846C94.4441 366.471 96.3459 374.232 96.3459 383.127V383.311C96.3459 392.145 94.4441 399.906 90.6406 406.592C86.8371 413.218 81.5305 418.402 74.721 422.144C67.9728 425.825 60.1203 427.665 51.1636 427.665H11.8707ZM0 471.559V338.773H23.7414V471.559H0Z" fill="white"/>
</g>
</g>
<defs>
<filter id="filter0_fn_141_64" x="-150" y="280.141" width="359" height="339.425" filterUnits="userSpaceOnUse" color-interpolation-filters="sRGB">
<feFlood flood-opacity="0" result="BackgroundImageFix"/>
<feBlend mode="normal" in="SourceGraphic" in2="BackgroundImageFix" result="shape"/>
<feGaussianBlur stdDeviation="50" result="effect1_foregroundBlur_141_64"/>
<feTurbulence type="fractalNoise" baseFrequency="1 1" stitchTiles="stitch" numOctaves="3" result="noise" seed="9505" />
<feColorMatrix in="noise" type="luminanceToAlpha" result="alphaNoise" />
<feComponentTransfer in="alphaNoise" result="coloredNoise1">
<feFuncA type="discrete" tableValues="1 1 1 1 1 1 1 1 1 1 1 1 1 1 1 1 1 1 1 1 1 1 1 1 1 1 1 1 1 1 1 1 1 1 1 1 1 1 1 1 1 1 1 1 1 1 1 1 1 1 1 0 0 0 0 0 0 0 0 0 0 0 0 0 0 0 0 0 0 0 0 0 0 0 0 0 0 0 0 0 0 0 0 0 0 0 0 0 0 0 0 0 0 0 0 0 0 0 0 0 "/>
</feComponentTransfer>
<feComposite operator="in" in2="effect1_foregroundBlur_141_64" in="coloredNoise1" result="noise1Clipped" />
<feFlood flood-color="rgba(0, 0, 0, 0.15)" result="color1Flood" />
<feComposite operator="in" in2="noise1Clipped" in="color1Flood" result="color1" />
<feMerge result="effect2_noise_141_64">
<feMergeNode in="effect1_foregroundBlur_141_64" />
<feMergeNode in="color1" />
</feMerge>
</filter>
<filter id="filter1_fn_141_64" x="-150" y="313.656" width="359" height="508.344" filterUnits="userSpaceOnUse" color-interpolation-filters="sRGB">
<feFlood flood-opacity="0" result="BackgroundImageFix"/>
<feBlend mode="normal" in="SourceGraphic" in2="BackgroundImageFix" result="shape"/>
<feGaussianBlur stdDeviation="50" result="effect1_foregroundBlur_141_64"/>
<feTurbulence type="fractalNoise" baseFrequency="1 1" stitchTiles="stitch" numOctaves="3" result="noise" seed="9505" />
<feColorMatrix in="noise" type="luminanceToAlpha" result="alphaNoise" />
<feComponentTransfer in="alphaNoise" result="coloredNoise1">
<feFuncA type="discrete" tableValues="1 1 1 1 1 1 1 1 1 1 1 1 1 1 1 1 1 1 1 1 1 1 1 1 1 1 1 1 1 1 1 1 1 1 1 1 1 1 1 1 1 1 1 1 1 1 1 1 1 1 1 0 0 0 0 0 0 0 0 0 0 0 0 0 0 0 0 0 0 0 0 0 0 0 0 0 0 0 0 0 0 0 0 0 0 0 0 0 0 0 0 0 0 0 0 0 0 0 0 0 "/>
</feComponentTransfer>
<feComposite operator="in" in2="effect1_foregroundBlur_141_64" in="coloredNoise1" result="noise1Clipped" />
<feFlood flood-color="rgba(0, 0, 0, 0.15)" result="color1Flood" />
<feComposite operator="in" in2="noise1Clipped" in="color1Flood" result="color1" />
<feMerge result="effect2_noise_141_64">
<feMergeNode in="effect1_foregroundBlur_141_64" />
<feMergeNode in="color1" />
</feMerge>
</filter>
<filter id="filter2_fn_141_64" x="264" y="204.669" width="761" height="667.331" filterUnits="userSpaceOnUse" color-interpolation-filters="sRGB">
<feFlood flood-opacity="0" result="BackgroundImageFix"/>
<feBlend mode="normal" in="SourceGraphic" in2="BackgroundImageFix" result="shape"/>
<feGaussianBlur stdDeviation="75" result="effect1_foregroundBlur_141_64"/>
<feTurbulence type="fractalNoise" baseFrequency="1 1" stitchTiles="stitch" numOctaves="3" result="noise" seed="9505" />
<feColorMatrix in="noise" type="luminanceToAlpha" result="alphaNoise" />
<feComponentTransfer in="alphaNoise" result="coloredNoise1">
<feFuncA type="discrete" tableValues="1 1 1 1 1 1 1 1 1 1 1 1 1 1 1 1 1 1 1 1 1 1 1 1 1 1 1 1 1 1 1 1 1 1 1 1 1 1 1 1 1 1 1 1 1 1 1 1 1 1 1 0 0 0 0 0 0 0 0 0 0 0 0 0 0 0 0 0 0 0 0 0 0 0 0 0 0 0 0 0 0 0 0 0 0 0 0 0 0 0 0 0 0 0 0 0 0 0 0 0 "/>
</feComponentTransfer>
<feComposite operator="in" in2="effect1_foregroundBlur_141_64" in="coloredNoise1" result="noise1Clipped" />
<feFlood flood-color="rgba(0, 0, 0, 0.15)" result="color1Flood" />
<feComposite operator="in" in2="noise1Clipped" in="color1Flood" result="color1" />
<feMerge result="effect2_noise_141_64">
<feMergeNode in="effect1_foregroundBlur_141_64" />
<feMergeNode in="color1" />
</feMerge>
</filter>
<filter id="filter3_fn_141_64" x="597" y="254.669" width="441" height="543.2" filterUnits="userSpaceOnUse" color-interpolation-filters="sRGB">
<feFlood flood-opacity="0" result="BackgroundImageFix"/>
<feBlend mode="normal" in="SourceGraphic" in2="BackgroundImageFix" result="shape"/>
<feGaussianBlur stdDeviation="50" result="effect1_foregroundBlur_141_64"/>
<feTurbulence type="fractalNoise" baseFrequency="1 1" stitchTiles="stitch" numOctaves="3" result="noise" seed="9505" />
<feColorMatrix in="noise" type="luminanceToAlpha" result="alphaNoise" />
<feComponentTransfer in="alphaNoise" result="coloredNoise1">
<feFuncA type="discrete" tableValues="1 1 1 1 1 1 1 1 1 1 1 1 1 1 1 1 1 1 1 1 1 1 1 1 1 1 1 1 1 1 1 1 1 1 1 1 1 1 1 1 1 1 1 1 1 1 1 1 1 1 1 0 0 0 0 0 0 0 0 0 0 0 0 0 0 0 0 0 0 0 0 0 0 0 0 0 0 0 0 0 0 0 0 0 0 0 0 0 0 0 0 0 0 0 0 0 0 0 0 0 "/>
</feComponentTransfer>
<feComposite operator="in" in2="effect1_foregroundBlur_141_64" in="coloredNoise1" result="noise1Clipped" />
<feFlood flood-color="rgba(0, 0, 0, 0.15)" result="color1Flood" />
<feComposite operator="in" in2="noise1Clipped" in="color1Flood" result="color1" />
<feMerge result="effect2_noise_141_64">
<feMergeNode in="effect1_foregroundBlur_141_64" />
<feMergeNode in="color1" />
</feMerge>
</filter>
<filter id="filter4_fn_141_64" x="-43" y="254.669" width="351" height="433.269" filterUnits="userSpaceOnUse" color-interpolation-filters="sRGB">
<feFlood flood-opacity="0" result="BackgroundImageFix"/>
<feBlend mode="normal" in="SourceGraphic" in2="BackgroundImageFix" result="shape"/>
<feGaussianBlur stdDeviation="50" result="effect1_foregroundBlur_141_64"/>
<feTurbulence type="fractalNoise" baseFrequency="1 1" stitchTiles="stitch" numOctaves="3" result="noise" seed="9505" />
<feColorMatrix in="noise" type="luminanceToAlpha" result="alphaNoise" />
<feComponentTransfer in="alphaNoise" result="coloredNoise1">
<feFuncA type="discrete" tableValues="1 1 1 1 1 1 1 1 1 1 1 1 1 1 1 1 1 1 1 1 1 1 1 1 1 1 1 1 1 1 1 1 1 1 1 1 1 1 1 1 1 1 1 1 1 1 1 1 1 1 1 0 0 0 0 0 0 0 0 0 0 0 0 0 0 0 0 0 0 0 0 0 0 0 0 0 0 0 0 0 0 0 0 0 0 0 0 0 0 0 0 0 0 0 0 0 0 0 0 0 "/>
</feComponentTransfer>
<feComposite operator="in" in2="effect1_foregroundBlur_141_64" in="coloredNoise1" result="noise1Clipped" />
<feFlood flood-color="rgba(0, 0, 0, 0.15)" result="color1Flood" />
<feComposite operator="in" in2="noise1Clipped" in="color1Flood" result="color1" />
<feMerge result="effect2_noise_141_64">
<feMergeNode in="effect1_foregroundBlur_141_64" />
<feMergeNode in="color1" />
</feMerge>
</filter>
<filter id="filter5_fn_141_64" x="17" y="330.141" width="476" height="299.753" filterUnits="userSpaceOnUse" color-interpolation-filters="sRGB">
<feFlood flood-opacity="0" result="BackgroundImageFix"/>
<feBlend mode="normal" in="SourceGraphic" in2="BackgroundImageFix" result="shape"/>
<feGaussianBlur stdDeviation="25" result="effect1_foregroundBlur_141_64"/>
<feTurbulence type="fractalNoise" baseFrequency="1 1" stitchTiles="stitch" numOctaves="3" result="noise" seed="9505" />
<feColorMatrix in="noise" type="luminanceToAlpha" result="alphaNoise" />
<feComponentTransfer in="alphaNoise" result="coloredNoise1">
<feFuncA type="discrete" tableValues="1 1 1 1 1 1 1 1 1 1 1 1 1 1 1 1 1 1 1 1 1 1 1 1 1 1 1 1 1 1 1 1 1 1 1 1 1 1 1 1 1 1 1 1 1 1 1 1 1 1 1 0 0 0 0 0 0 0 0 0 0 0 0 0 0 0 0 0 0 0 0 0 0 0 0 0 0 0 0 0 0 0 0 0 0 0 0 0 0 0 0 0 0 0 0 0 0 0 0 0 "/>
</feComponentTransfer>
<feComposite operator="in" in2="effect1_foregroundBlur_141_64" in="coloredNoise1" result="noise1Clipped" />
<feFlood flood-color="rgba(0, 0, 0, 0.15)" result="color1Flood" />
<feComposite operator="in" in2="noise1Clipped" in="color1Flood" result="color1" />
<feMerge result="effect2_noise_141_64">
<feMergeNode in="effect1_foregroundBlur_141_64" />
<feMergeNode in="color1" />
</feMerge>
</filter>
<filter id="filter6_fn_141_64" x="169" y="197" width="619" height="512" filterUnits="userSpaceOnUse" color-interpolation-filters="sRGB">
<feFlood flood-opacity="0" result="BackgroundImageFix"/>
<feBlend mode="normal" in="SourceGraphic" in2="BackgroundImageFix" result="shape"/>
<feGaussianBlur stdDeviation="50" result="effect1_foregroundBlur_141_64"/>
<feTurbulence type="fractalNoise" baseFrequency="1 1" stitchTiles="stitch" numOctaves="3" result="noise" seed="9505" />
<feColorMatrix in="noise" type="luminanceToAlpha" result="alphaNoise" />
<feComponentTransfer in="alphaNoise" result="coloredNoise1">
<feFuncA type="discrete" tableValues="1 1 1 1 1 1 1 1 1 1 1 1 1 1 1 1 1 1 1 1 1 1 1 1 1 1 1 1 1 1 1 1 1 1 1 1 1 1 1 1 1 1 1 1 1 1 1 1 1 1 1 0 0 0 0 0 0 0 0 0 0 0 0 0 0 0 0 0 0 0 0 0 0 0 0 0 0 0 0 0 0 0 0 0 0 0 0 0 0 0 0 0 0 0 0 0 0 0 0 0 "/>
</feComponentTransfer>
<feComposite operator="in" in2="effect1_foregroundBlur_141_64" in="coloredNoise1" result="noise1Clipped" />
<feFlood flood-color="rgba(0, 0, 0, 0.15)" result="color1Flood" />
<feComposite operator="in" in2="noise1Clipped" in="color1Flood" result="color1" />
<feMerge result="effect2_noise_141_64">
<feMergeNode in="effect1_foregroundBlur_141_64" />
<feMergeNode in="color1" />
</feMerge>
</filter>
<clipPath id="clip0_141_64">
<rect width="840" height="473" fill="white"/>
</clipPath>
</defs>
</svg>
