<svg width="40" height="40" viewBox="0 0 40 40" fill="none" xmlns="http://www.w3.org/2000/svg">
<path d="M29.796 17.9843C29.6626 17.3412 29.4665 16.7137 29.2075 16.102C28.9565 15.5059 28.6426 14.9412 28.2817 14.4078C27.9208 13.8745 27.5128 13.3882 27.0655 12.9333C26.6104 12.4784 26.1083 12.0627 25.5904 11.7176C25.0569 11.3569 24.4763 11.0431 23.8956 10.7922C23.2915 10.5333 22.6638 10.3373 22.0126 10.2039C21.3535 10.0706 20.6787 10 19.9961 10C19.3135 10 18.6387 10.0706 17.9796 10.2039C17.3362 10.3373 16.7085 10.5333 16.1044 10.7922C15.508 11.0431 14.9431 11.3569 14.4096 11.7176C13.876 12.0784 13.3817 12.4863 12.9345 12.9333C12.4872 13.3804 12.0714 13.8902 11.7183 14.4078C11.3574 14.9412 11.0435 15.5059 10.7925 16.102C10.5335 16.7059 10.3374 17.3333 10.204 17.9843C10.0706 18.6431 10 19.3176 10 20C10 20.6824 10.0706 21.3569 10.204 22.0157C10.3374 22.6588 10.5335 23.2863 10.7925 23.8902C11.0435 24.4863 11.3574 25.051 11.7183 25.5922C12.0792 26.1255 12.4872 26.6118 12.9345 27.0667C13.3896 27.5216 13.8917 27.9294 14.4096 28.2824C14.9431 28.6431 15.5237 28.9569 16.1044 29.2078C16.7085 29.4667 17.3362 29.6627 17.9796 29.7961C18.6387 29.9294 19.3135 30 19.9961 30C20.6787 30 21.3456 29.9294 22.0126 29.7961C22.6559 29.6627 23.2836 29.4667 23.8956 29.2078C24.492 28.9569 25.0569 28.6431 25.5904 28.2824C26.124 27.9216 26.6183 27.5137 27.0655 27.0667C27.5206 26.6118 27.9286 26.1098 28.2817 25.5922C28.6426 25.0588 28.9565 24.4863 29.2075 23.8902C29.4665 23.2863 29.6626 22.6588 29.796 22.0157C29.9294 21.3569 30 20.6824 30 20C30 19.3176 29.9294 18.6431 29.796 17.9843ZM19.9961 11.4588C22.1616 11.4588 24.131 12.2667 25.6375 13.5922C25.614 13.6235 24.4056 15.4745 21.173 16.6824C19.7136 14 18.1051 11.8667 17.9718 11.6941C18.623 11.5451 19.2978 11.4588 19.9961 11.4588ZM17.9325 11.7098C17.9404 11.702 17.9325 11.702 17.9325 11.7098ZM16.3476 12.2745C16.4653 12.4235 18.0424 14.5725 19.5253 17.2C15.4217 18.2824 11.8596 18.2431 11.6399 18.2353C12.1812 15.5922 13.9623 13.3961 16.3476 12.2745ZM13.6328 25.702C12.2754 24.1961 11.4437 22.1961 11.4437 20C11.4437 19.9059 11.4515 19.8196 11.4515 19.7333C11.6006 19.7333 15.8219 19.8353 20.2236 18.5176C20.4669 18.9961 20.7022 19.4902 20.9219 19.9686C20.8121 20 20.6944 20.0314 20.5845 20.0706C15.971 21.5608 13.6328 25.702 13.6328 25.702ZM19.9961 28.5412C18.0031 28.5412 16.1907 27.8588 14.7391 26.7294C14.7705 26.6667 16.426 23.1451 21.4476 21.3961C21.4633 21.3882 21.4869 21.3804 21.5026 21.3804C22.703 24.502 23.1973 27.1137 23.3229 27.8667C22.3029 28.298 21.173 28.5412 19.9961 28.5412ZM24.7666 27.0824C24.6803 26.5647 24.2252 24.0627 23.1032 20.9804C25.865 20.5412 28.2581 21.2941 28.4308 21.3569C28.0541 23.7333 26.6811 25.7882 24.7666 27.0824ZM22.5853 19.6314C22.5226 19.4824 22.4598 19.3412 22.397 19.1922C22.2166 18.7686 22.0282 18.3608 21.8242 17.9529C25.1981 16.5804 26.5712 14.5961 26.5869 14.5725C27.7795 16.0314 28.5092 17.8902 28.5328 19.9137C28.4151 19.8902 25.5198 19.2627 22.5853 19.6314Z" fill="black"/>
</svg>
