<svg width="40" height="40" viewBox="0 0 40 40" fill="none" xmlns="http://www.w3.org/2000/svg">
<path d="M20 10C17.2877 10 16.9422 10.0113 15.8777 10.0623C14.8131 10.1133 14.0883 10.2775 13.4541 10.5266C12.7973 10.7814 12.2367 11.1212 11.6818 11.6818C11.1268 12.2367 10.7871 12.7973 10.5266 13.4541C10.2775 14.0883 10.1076 14.8188 10.0623 15.8777C10.017 16.9422 10 17.282 10 20C10 22.7123 10.0113 23.0521 10.0623 24.1223C10.1133 25.1869 10.2775 25.9117 10.5266 26.5459C10.7814 27.2027 11.1212 27.7633 11.6818 28.3182C12.2367 28.8732 12.7973 29.2186 13.4541 29.4734C14.0883 29.7225 14.8188 29.8867 15.8777 29.9377C16.9422 29.9887 17.282 30 20 30C22.7123 30 23.0521 29.9887 24.1223 29.9377C25.1869 29.8867 25.9117 29.7225 26.5515 29.4734C27.2084 29.2186 27.7633 28.8732 28.3182 28.3182C28.8732 27.7633 29.2129 27.2027 29.4734 26.5459C29.7169 25.9117 29.8867 25.1869 29.9377 24.1223C29.983 23.0578 30 22.718 30 20C30 17.2877 29.9887 16.9479 29.9377 15.8777C29.8867 14.8131 29.7169 14.0883 29.4734 13.4541C29.2186 12.7973 28.8732 12.2367 28.3182 11.6818C27.7633 11.1268 27.2084 10.7871 26.5459 10.5266C25.906 10.2775 25.1812 10.1133 24.1166 10.0623C23.0521 10.0113 22.7123 10 20 10ZM19.1053 11.8007C19.3715 11.8007 19.6659 11.8007 20 11.8007C22.667 11.8007 22.9841 11.812 24.0374 11.8573C25.0113 11.9026 25.5379 12.0668 25.8947 12.2027C26.359 12.3839 26.6931 12.5991 27.0442 12.9502C27.3952 13.3012 27.6104 13.6353 27.7916 14.0997C27.9275 14.4507 28.0917 14.983 28.137 15.957C28.1823 17.0102 28.1937 17.3273 28.1937 19.9943C28.1937 22.6614 28.1823 22.9785 28.137 24.0317C28.0917 25.0057 27.9275 25.5323 27.7916 25.889C27.6104 26.3533 27.3952 26.6874 27.0442 27.0385C26.6931 27.3896 26.3647 27.6048 25.8947 27.786C25.5436 27.9219 25.0113 28.0861 24.0374 28.1314C22.9841 28.1767 22.667 28.188 20 28.188C17.333 28.188 17.0159 28.1767 15.9626 28.1314C14.9887 28.0861 14.4621 27.9219 14.1053 27.786C13.641 27.6048 13.3069 27.3896 12.9558 27.0385C12.6048 26.6874 12.3896 26.3533 12.2084 25.889C12.0725 25.5379 11.9083 25.0057 11.863 24.0317C11.8177 22.9785 11.8063 22.6614 11.8063 19.9943C11.8063 17.3273 11.8177 17.0102 11.863 15.957C11.9083 14.983 12.0725 14.4564 12.2084 14.0997C12.3896 13.6353 12.6048 13.3012 12.9558 12.9502C13.3069 12.5991 13.641 12.3839 14.1053 12.2027C14.4564 12.0668 14.9887 11.9026 15.9626 11.8573C16.8856 11.812 17.2424 11.8007 19.1053 11.8007ZM25.3341 13.4598C24.6716 13.4598 24.1336 13.9977 24.1336 14.6602C24.1336 15.3228 24.6716 15.8607 25.3341 15.8607C25.9966 15.8607 26.5345 15.3228 26.5345 14.6602C26.5345 13.9977 25.9966 13.4598 25.3341 13.4598ZM20 14.8641C17.1631 14.8641 14.8698 17.1631 14.8698 19.9943C14.8698 22.8313 17.1687 25.1246 20 25.1246C22.8369 25.1246 25.1302 22.8256 25.1302 19.9943C25.1302 17.1574 22.8369 14.8641 20 14.8641ZM20 16.6648C21.8403 16.6648 23.3296 18.154 23.3296 19.9943C23.3296 21.8347 21.8403 23.3239 20 23.3239C18.1597 23.3239 16.6704 21.8347 16.6704 19.9943C16.6704 18.154 18.1597 16.6648 20 16.6648Z" fill="black"/>
</svg>
