<svg width="40" height="40" viewBox="0 0 40 40" fill="none" xmlns="http://www.w3.org/2000/svg">
<path d="M14.4123 16.998H10.5154V29.7023H14.4123V16.998Z" fill="black"/>
<path d="M12.3819 11C10.9449 11 10 11.9467 10 13.2036C10 14.4366 10.9137 15.4071 12.3272 15.4071H12.3585C13.8266 15.4071 14.7403 14.4286 14.7325 13.2036C14.7013 11.9467 13.8188 11 12.3819 11Z" fill="black"/>
<path d="M25.0566 16.8789C22.8231 16.8789 21.4252 18.1199 21.1675 18.995V16.9982H16.7864C16.841 18.0563 16.7864 29.7025 16.7864 29.7025H21.1675V22.8373C21.1675 22.4475 21.1519 22.0656 21.2612 21.7951C21.5579 21.0315 22.2061 20.2359 23.3697 20.2359C24.8926 20.2359 25.5798 21.4133 25.5798 23.1316V29.7025H30V22.6384C30 18.7086 27.8289 16.8789 25.0566 16.8789Z" fill="black"/>
</svg>
