<svg width="2295" height="369" viewBox="0 0 2295 369" fill="none" xmlns="http://www.w3.org/2000/svg">
<g clip-path="url(#clip0_210_325)">
<path d="M2094.92 336.917V35.5625H2146.71V336.917H2094.92ZM2234.42 336.917L2160.28 236.257L2193.49 197.83L2294.36 336.917H2234.42ZM2139.19 268V207.437H2147.96L2230.66 115.548H2290.6L2187.43 227.694H2177.82L2139.19 268Z" fill="black"/>
<path d="M1972.53 341.302C1950.67 341.302 1931.73 336.638 1915.72 327.31C1899.71 317.982 1887.32 304.686 1878.55 287.422C1869.92 270.158 1865.6 249.692 1865.6 226.023V225.815C1865.6 202.285 1869.99 181.958 1878.76 164.834C1887.53 147.57 1899.85 134.273 1915.72 124.945C1931.73 115.617 1950.46 110.953 1971.9 110.953C1991.39 110.953 2008.24 114.712 2022.44 122.23C2036.64 129.609 2047.78 139.425 2055.85 151.677C2063.93 163.929 2068.52 177.434 2069.64 192.191V193.653H2020.77L2020.35 191.983C2018.26 181.262 2013.18 172.143 2005.11 164.625C1997.17 156.967 1986.31 153.139 1972.53 153.139C1961.67 153.139 1952.13 156.132 1943.92 162.119C1935.84 167.966 1929.58 176.32 1925.12 187.179C1920.67 198.039 1918.44 211.057 1918.44 226.232V226.441C1918.44 241.756 1920.67 254.843 1925.12 265.703C1929.72 276.562 1936.05 284.916 1944.13 290.763C1952.34 296.472 1961.88 299.326 1972.74 299.326C1985.96 299.326 1996.61 295.776 2004.69 288.675C2012.9 281.435 2018.19 272.038 2020.56 260.482L2020.98 258.602H2070.06L2069.85 260.064C2068.45 275.379 2063.58 289.162 2055.23 301.414C2046.87 313.666 2035.67 323.412 2021.6 330.652C2007.54 337.752 1991.18 341.302 1972.53 341.302Z" fill="black"/>
<path d="M1721.49 340.676C1706.88 340.676 1693.93 337.891 1682.65 332.322C1671.51 326.614 1662.81 318.748 1656.55 308.724C1650.42 298.56 1647.36 286.935 1647.36 273.847V273.43C1647.36 260.203 1650.63 248.926 1657.17 239.598C1663.86 230.131 1673.46 222.682 1685.99 217.252C1698.52 211.683 1713.7 208.342 1731.52 207.228L1816.1 202.007V236.465L1738.83 241.269C1726.02 242.104 1716.2 245.167 1709.38 250.458C1702.56 255.748 1699.15 262.779 1699.15 271.55V271.759C1699.15 280.809 1702.56 287.979 1709.38 293.269C1716.34 298.421 1725.53 300.997 1736.95 300.997C1746.97 300.997 1755.88 298.978 1763.68 294.94C1771.62 290.903 1777.88 285.403 1782.48 278.442C1787.07 271.481 1789.37 263.614 1789.37 254.843V188.432C1789.37 177.294 1785.82 168.523 1778.72 162.119C1771.76 155.575 1761.66 152.303 1748.44 152.303C1736.18 152.303 1726.37 154.949 1718.99 160.239C1711.61 165.39 1707.02 172.073 1705.21 180.288L1704.79 182.167H1656.75L1656.96 179.661C1658.08 166.574 1662.46 154.879 1670.12 144.576C1677.78 134.134 1688.36 125.92 1701.86 119.933C1715.51 113.946 1731.66 110.953 1750.31 110.953C1768.83 110.953 1784.84 114.016 1798.35 120.142C1811.99 126.268 1822.5 134.83 1829.88 145.829C1837.4 156.828 1841.16 169.776 1841.16 184.673V336.917H1789.37V302.876H1788.11C1783.94 310.533 1778.51 317.216 1771.82 322.925C1765.14 328.633 1757.48 333.018 1748.85 336.081C1740.36 339.144 1731.24 340.676 1721.49 340.676Z" fill="black"/>
<path d="M1522.67 336.917V115.548H1574.46V153.765H1575.72C1579.06 140.399 1585.11 129.957 1593.89 122.439C1602.8 114.782 1613.66 110.953 1626.46 110.953C1629.67 110.953 1632.73 111.162 1635.65 111.58C1638.58 111.997 1641.01 112.485 1642.96 113.042V160.03C1640.87 159.195 1637.88 158.499 1633.98 157.942C1630.22 157.385 1626.12 157.107 1621.66 157.107C1611.92 157.107 1603.49 159.125 1596.39 163.163C1589.29 167.061 1583.86 172.839 1580.1 180.496C1576.34 188.154 1574.46 197.482 1574.46 208.481V336.917H1522.67Z" fill="black"/>
<path d="M1402.58 341.302C1380.72 341.302 1361.79 336.638 1345.78 327.31C1329.77 317.982 1317.37 304.686 1308.6 287.422C1299.97 270.158 1295.66 249.692 1295.66 226.023V225.815C1295.66 202.285 1300.04 181.958 1308.81 164.834C1317.58 147.57 1329.91 134.273 1345.78 124.945C1361.79 115.617 1380.51 110.953 1401.95 110.953C1421.45 110.953 1438.29 114.712 1452.49 122.23C1466.69 129.609 1477.83 139.425 1485.91 151.677C1493.98 163.929 1498.58 177.434 1499.69 192.191V193.653H1450.82L1450.41 191.983C1448.32 181.262 1443.24 172.143 1435.16 164.625C1427.22 156.967 1416.36 153.139 1402.58 153.139C1391.72 153.139 1382.18 156.132 1373.97 162.119C1365.9 167.966 1359.63 176.32 1355.17 187.179C1350.72 198.039 1348.49 211.057 1348.49 226.232V226.441C1348.49 241.756 1350.72 254.843 1355.17 265.703C1359.77 276.562 1366.1 284.916 1374.18 290.763C1382.39 296.472 1391.93 299.326 1402.79 299.326C1416.02 299.326 1426.67 295.776 1434.74 288.675C1442.96 281.435 1448.25 272.038 1450.61 260.482L1451.03 258.602H1500.11L1499.9 260.064C1498.51 275.379 1493.64 289.162 1485.28 301.414C1476.93 313.666 1465.72 323.412 1451.66 330.652C1437.6 337.752 1421.24 341.302 1402.58 341.302Z" fill="black"/>
<path d="M1071.77 336.917V35.5625H1123.77V152.721H1124.82C1130.66 139.355 1139.37 129.053 1150.92 121.813C1162.62 114.573 1176.68 110.953 1193.11 110.953C1209.12 110.953 1222.97 114.643 1234.67 122.022C1246.36 129.262 1255.41 139.495 1261.82 152.721C1268.22 165.808 1271.42 181.262 1271.42 199.083V336.917H1219.42V209.316C1219.42 192.331 1215.31 179.035 1207.1 169.428C1198.89 159.682 1187.33 154.81 1172.43 154.81C1162.69 154.81 1154.12 157.176 1146.75 161.91C1139.51 166.504 1133.87 172.909 1129.83 181.123C1125.79 189.198 1123.77 198.596 1123.77 209.316V336.917H1071.77Z" fill="black"/>
<path d="M950.219 341.302C928.361 341.302 909.426 336.638 893.415 327.31C877.404 317.982 865.013 304.686 856.242 287.422C847.61 270.158 843.294 249.692 843.294 226.023V225.815C843.294 202.285 847.68 181.958 856.451 164.834C865.222 147.57 877.544 134.273 893.415 124.945C909.426 115.617 928.152 110.953 949.593 110.953C969.085 110.953 985.931 114.712 1000.13 122.23C1014.33 129.609 1025.47 139.425 1033.55 151.677C1041.62 163.929 1046.22 177.434 1047.33 192.191V193.653H998.461L998.044 191.983C995.955 181.262 990.873 172.143 982.798 164.625C974.862 156.967 964.003 153.139 950.219 153.139C939.36 153.139 929.823 156.132 921.609 162.119C913.533 167.966 907.268 176.32 902.813 187.179C898.358 198.039 896.13 211.057 896.13 226.232V226.441C896.13 241.756 898.358 254.843 902.813 265.703C907.408 276.562 913.742 284.916 921.817 290.763C930.032 296.472 939.569 299.326 950.428 299.326C963.655 299.326 974.306 295.776 982.381 288.675C990.595 281.435 995.886 272.038 998.252 260.482L998.67 258.602H1047.75L1047.54 260.064C1046.15 275.379 1041.27 289.162 1032.92 301.414C1024.57 313.666 1013.36 323.412 999.297 330.652C985.235 337.752 968.876 341.302 950.219 341.302Z" fill="black"/>
<path d="M803.606 341.303C780.634 341.303 763.509 336.29 752.232 326.266C741.094 316.242 735.525 299.813 735.525 276.98V155.645H704.199V115.548H735.525V59.3701H788.361V115.548H829.502V155.645H788.361V272.803C788.361 283.524 790.728 290.972 795.461 295.149C800.334 299.187 807.435 301.206 816.763 301.206C819.408 301.206 821.705 301.136 823.655 300.997C825.743 300.718 827.692 300.509 829.502 300.37V339.423C826.439 339.841 822.68 340.258 818.225 340.676C813.909 341.094 809.036 341.303 803.606 341.303Z" fill="black"/>
<path d="M633.812 336.917V115.548H685.813V336.917H633.812ZM659.708 83.8042C651.633 83.8042 644.811 81.0197 639.242 75.4506C633.673 69.8816 630.888 63.1987 630.888 55.4021C630.888 47.4662 633.673 40.7834 639.242 35.3536C644.811 29.7845 651.633 27 659.708 27C667.922 27 674.814 29.7845 680.383 35.3536C685.952 40.7834 688.737 47.4662 688.737 55.4021C688.737 63.1987 685.952 69.8816 680.383 75.4506C674.814 81.0197 667.922 83.8042 659.708 83.8042Z" fill="black"/>
<path d="M414.94 237.301V193.862H490.749C510.24 193.862 525.277 188.92 535.858 179.035C546.578 169.011 551.939 154.949 551.939 136.849V136.432C551.939 118.193 546.578 104.131 535.858 94.2462C525.277 84.3612 510.24 79.4187 490.749 79.4187H414.94V35.5625H504.114C524.441 35.5625 542.262 39.7393 557.577 48.0928C573.031 56.4464 585.074 68.211 593.706 83.3866C602.338 98.423 606.654 116.035 606.654 136.223V136.641C606.654 156.689 602.338 174.301 593.706 189.477C585.074 204.513 573.031 216.278 557.577 224.771C542.262 233.124 524.441 237.301 504.114 237.301H414.94ZM388 336.917V35.5625H441.88V336.917H388Z" fill="black"/>
<path d="M0 210.767V158.075H158.075V368.842C70.7728 368.842 0 298.069 0 210.767Z" fill="#1647FF"/>
<ellipse cx="158.075" cy="158.075" rx="158.075" ry="158.075" fill="#1647FF"/>
<path d="M105.383 158.075C105.383 187.176 128.974 210.766 158.074 210.767C187.175 210.767 210.767 187.176 210.767 158.075H263.458C263.458 216.277 216.276 263.458 158.074 263.458C99.8732 263.458 52.6919 216.276 52.6916 158.075H105.383Z" fill="#F5F5F5"/>
</g>
<defs>
<clipPath id="clip0_210_325">
<rect width="2295" height="369" fill="white"/>
</clipPath>
</defs>
</svg>
